# xmcd CD database file
#
# Track frame offsets:
#	150
#	20515
#	32667
#	52882
#	70402
#	83907
#	101155
#	117935
#	135622
#	147787
#
# Disc length: 2295 seconds
#
# Revision: 1
# Processed by: cddbd v1.4PL0 Copyright (c) Steve Scherf et al.
# Submitted via: CDex 1.50Beta3
#
DISCID=8608f50a
DTITLE=Montana Rose - Montana Rose
DYEAR=1900
DGENRE=Country
TTITLE0=Useful Girl
TTITLE1=That's All It Took
TTITLE2=One Day Sunshine
TTITLE3=Is the Love All Gone
TTITLE4=He'd Never Lie
TTITLE5=We're Talkin' Tears
TTITLE6=Don't Ever Leave
TTITLE7=Motana Rose
TTITLE8=Honky Tonk Song
TTITLE9=Enemy of Love
EXTD=
EXTT0=
EXTT1=
EXTT2=
EXTT3=
EXTT4=
EXTT5=
EXTT6=
EXTT7=
EXTT8=
EXTT9=
PLAYORDER=
